<svg id="svg" version="1.1" xmlns="http://www.w3.org/2000/svg" xmlns:xlink="http://www.w3.org/1999/xlink" width="400" height="38.009049773755656" viewBox="0, 0, 400,38.009049773755656"><g id="svgg"><path id="path0" d="M0.000 19.000 L 0.000 38.000 199.999 38.000 L 399.999 38.000 399.994 19.000 L 399.990 -0.000 199.995 -0.000 L 0.000 0.000 0.000 19.000 M355.667 10.667 C 355.970 10.970,356.000 11.222,356.000 13.500 C 356.000 16.958,356.473 16.667,350.865 16.667 C 345.561 16.667,345.851 16.765,345.656 14.905 C 345.383 12.298,345.450 11.202,345.909 10.742 L 346.318 10.333 350.826 10.333 C 355.111 10.333,355.350 10.350,355.667 10.667 M362.333 10.942 C 362.711 11.017,362.976 11.222,363.211 11.621 C 363.537 12.173,363.572 12.188,364.325 12.084 C 364.875 12.009,365.309 12.060,365.802 12.257 C 366.448 12.515,366.550 12.516,367.173 12.267 C 367.609 12.092,368.069 12.034,368.482 12.100 C 369.057 12.192,369.155 12.152,369.488 11.684 C 370.016 10.943,371.605 10.907,372.170 11.625 C 372.714 12.318,374.535 12.320,375.027 11.628 C 375.420 11.077,375.989 11.028,376.422 11.506 C 376.591 11.693,377.046 11.986,377.434 12.157 C 378.222 12.506,378.440 12.814,378.598 13.805 C 378.854 15.408,378.136 16.512,377.224 15.915 C 376.802 15.639,376.758 15.639,376.266 15.934 C 375.812 16.205,375.410 16.238,372.927 16.212 L 370.103 16.183 369.389 16.841 C 368.371 17.779,367.391 17.789,366.516 16.870 C 365.570 15.876,364.830 15.552,364.300 15.899 C 363.469 16.444,360.131 16.479,359.600 15.949 C 359.004 15.353,358.936 12.172,359.503 11.450 C 359.944 10.890,361.067 10.688,362.333 10.942 M397.151 12.159 C 398.267 12.755,396.236 15.400,394.917 15.069 C 393.842 14.799,392.596 12.708,393.208 12.202 C 393.672 11.819,396.459 11.788,397.151 12.159 " stroke="none" fill="#fbfbfb" fill-rule="evenodd"></path><path id="path1" d="" stroke="none" fill="#6b4550" fill-rule="evenodd"></path><path id="path2" d="M350.742 10.847 C 350.681 10.946,350.796 11.143,350.999 11.285 C 351.508 11.641,351.445 13.835,350.914 14.245 C 350.593 14.493,347.202 14.559,346.500 14.331 C 346.305 14.268,346.239 14.428,346.199 15.055 C 346.115 16.372,345.975 16.333,350.844 16.333 C 356.083 16.333,355.667 16.578,355.667 13.500 C 355.667 10.585,355.744 10.667,353.000 10.667 C 351.643 10.667,350.812 10.733,350.742 10.847 " stroke="none" fill="#d7b7b8" fill-rule="evenodd"></path><path id="path3" d="M346.971 10.791 C 346.108 10.877,345.931 11.175,345.924 12.559 C 345.917 13.830,346.059 14.419,346.333 14.250 C 346.445 14.181,346.446 14.043,346.334 13.834 C 346.242 13.662,346.167 13.071,346.167 12.520 C 346.167 11.116,346.366 11.000,348.777 11.000 C 349.806 11.000,350.690 10.931,350.741 10.847 C 350.833 10.700,348.280 10.662,346.971 10.791 M359.907 11.570 C 359.441 11.910,359.420 15.158,359.881 15.619 C 360.387 16.125,362.833 15.961,362.833 15.421 C 362.833 15.274,362.591 15.141,362.208 15.076 C 361.161 14.900,361.000 14.823,361.000 14.500 C 361.000 14.195,361.105 14.138,362.053 13.926 C 362.667 13.789,362.589 13.330,361.917 13.126 C 360.902 12.817,360.946 12.849,361.168 12.581 C 361.282 12.445,361.581 12.333,361.833 12.333 C 362.435 12.333,362.790 11.933,362.500 11.583 C 362.224 11.250,360.357 11.241,359.907 11.570 M361.333 11.793 C 361.333 11.863,361.183 12.013,361.000 12.128 C 360.594 12.382,360.573 12.787,360.944 13.197 C 361.204 13.484,361.199 13.528,360.861 13.887 C 360.411 14.366,360.404 14.695,360.837 15.087 C 361.177 15.394,361.047 15.658,360.554 15.664 C 359.882 15.673,359.442 12.458,360.033 11.867 C 360.251 11.649,361.333 11.588,361.333 11.793 M369.842 12.154 C 369.514 12.615,369.446 12.637,368.599 12.550 C 367.954 12.483,367.551 12.533,367.160 12.729 C 366.495 13.060,366.181 13.064,365.760 12.745 C 365.260 12.367,363.951 12.427,363.573 12.844 C 363.132 13.332,363.092 15.282,363.518 15.510 C 363.892 15.710,364.333 15.299,364.333 14.752 C 364.333 13.582,365.087 13.441,365.258 14.578 C 365.378 15.380,365.681 15.761,366.076 15.609 C 366.387 15.490,366.833 15.921,366.833 16.341 C 366.833 16.834,367.560 17.224,368.242 17.096 C 368.770 16.997,369.135 16.677,369.586 15.917 C 369.831 15.505,371.817 15.433,372.884 15.798 C 373.634 16.055,373.736 16.054,374.512 15.778 C 374.967 15.616,375.398 15.520,375.469 15.564 C 375.741 15.732,376.090 15.319,376.258 14.631 C 376.463 13.793,377.047 13.594,377.130 14.333 C 377.329 16.112,378.167 15.984,378.167 14.176 C 378.167 13.246,377.752 12.599,377.044 12.423 C 376.791 12.360,376.426 12.162,376.234 11.983 C 375.793 11.572,375.408 11.711,375.180 12.365 C 375.046 12.752,374.935 12.844,374.710 12.757 C 374.037 12.496,373.441 12.466,372.849 12.662 C 372.147 12.893,371.541 12.690,370.932 12.017 C 370.504 11.544,370.254 11.576,369.842 12.154 M376.706 12.640 C 377.557 13.043,377.888 13.470,377.797 14.050 C 377.746 14.384,377.714 14.368,377.449 13.875 C 376.970 12.984,376.131 13.305,375.898 14.469 C 375.819 14.863,375.701 15.001,375.438 15.005 C 375.243 15.008,374.938 15.121,374.760 15.255 C 374.393 15.533,373.240 15.586,373.083 15.333 C 373.027 15.242,373.135 15.167,373.323 15.167 C 373.832 15.167,373.740 14.713,373.172 14.419 C 372.424 14.033,372.247 13.586,372.673 13.161 C 373.196 12.638,374.066 12.763,374.136 13.371 C 374.260 14.449,375.333 14.715,375.333 13.668 C 375.333 12.953,375.600 12.104,375.793 12.203 C 375.861 12.238,376.272 12.435,376.706 12.640 M370.620 13.644 C 370.683 14.341,370.646 14.741,370.501 14.916 C 369.951 15.579,369.598 14.058,370.021 12.846 C 370.280 12.101,370.508 12.404,370.620 13.644 M393.708 12.444 C 392.989 12.734,394.329 14.667,395.250 14.667 C 396.215 14.667,397.505 12.729,396.736 12.434 C 396.425 12.315,394.009 12.322,393.708 12.444 M396.292 12.605 C 397.087 12.818,396.180 14.333,395.257 14.333 C 394.413 14.333,393.405 12.803,394.125 12.615 C 394.571 12.498,395.871 12.492,396.292 12.605 M365.855 13.243 L 366.342 13.653 367.113 13.243 C 368.768 12.363,369.582 12.823,369.470 14.575 C 369.379 16.013,368.980 16.583,368.065 16.583 C 367.524 16.583,367.426 16.532,367.470 16.272 C 367.548 15.822,366.699 15.000,366.157 15.000 C 365.766 15.000,365.696 14.918,365.606 14.355 C 365.422 13.206,364.618 12.982,364.167 13.955 C 363.825 14.691,363.667 14.635,363.667 13.778 C 363.667 12.881,363.716 12.833,364.629 12.833 C 365.171 12.833,365.498 12.943,365.855 13.243 M367.442 13.471 C 366.950 14.015,367.202 15.167,367.813 15.167 C 368.563 15.167,368.944 13.969,368.362 13.442 C 367.971 13.089,367.783 13.095,367.442 13.471 M371.876 14.090 C 371.816 15.058,371.718 15.250,371.415 14.998 C 371.163 14.790,371.068 13.654,371.284 13.439 C 371.608 13.114,371.915 13.451,371.876 14.090 M368.303 14.127 C 368.336 14.357,368.251 14.542,368.084 14.606 C 367.706 14.751,367.444 14.439,367.581 14.007 C 367.728 13.544,368.232 13.628,368.303 14.127 " stroke="none" fill="#c4c4c4" fill-rule="evenodd"></path><path id="path4" d="M346.537 11.259 C 345.916 11.694,346.056 13.920,346.733 14.372 C 346.834 14.440,347.742 14.494,348.750 14.492 C 351.007 14.489,351.208 14.379,351.255 13.128 C 351.273 12.645,351.256 12.531,351.218 12.874 C 351.131 13.648,350.759 13.884,349.981 13.661 C 349.672 13.573,348.931 13.499,348.334 13.497 C 347.099 13.495,346.901 13.411,346.756 12.832 C 346.570 12.090,346.940 11.850,348.325 11.814 C 349.008 11.796,349.852 11.709,350.200 11.620 C 350.663 11.503,350.901 11.515,351.083 11.667 C 351.242 11.798,351.333 11.809,351.333 11.697 C 351.333 11.202,350.585 11.000,348.750 11.000 C 347.352 11.000,346.818 11.063,346.537 11.259 M360.033 11.867 C 359.442 12.458,359.882 15.673,360.554 15.664 C 361.047 15.658,361.177 15.394,360.837 15.087 C 360.404 14.695,360.411 14.366,360.861 13.887 C 361.199 13.528,361.204 13.484,360.944 13.197 C 360.573 12.787,360.594 12.382,361.000 12.128 C 361.183 12.013,361.333 11.863,361.333 11.793 C 361.333 11.588,360.251 11.649,360.033 11.867 M375.501 12.581 C 375.409 12.823,375.333 13.312,375.333 13.668 C 375.333 14.715,374.260 14.449,374.136 13.371 C 374.066 12.763,373.196 12.638,372.673 13.161 C 372.247 13.586,372.424 14.033,373.172 14.419 C 373.740 14.713,373.832 15.167,373.323 15.167 C 373.135 15.167,373.027 15.242,373.083 15.333 C 373.240 15.586,374.393 15.533,374.760 15.255 C 374.938 15.121,375.243 15.008,375.438 15.005 C 375.701 15.001,375.819 14.863,375.898 14.469 C 376.131 13.305,376.970 12.984,377.449 13.875 C 377.714 14.368,377.746 14.384,377.797 14.050 C 377.888 13.470,377.557 13.043,376.706 12.640 C 376.272 12.435,375.861 12.238,375.793 12.203 C 375.725 12.168,375.593 12.338,375.501 12.581 M370.021 12.846 C 369.598 14.058,369.951 15.579,370.501 14.916 C 370.646 14.741,370.683 14.341,370.620 13.644 C 370.508 12.404,370.280 12.101,370.021 12.846 M394.125 12.615 C 393.405 12.803,394.413 14.333,395.257 14.333 C 395.760 14.333,396.667 13.477,396.667 13.002 C 396.667 12.564,395.183 12.338,394.125 12.615 M376.255 12.841 C 376.370 13.028,376.054 13.500,375.813 13.500 C 375.642 13.500,375.615 12.941,375.778 12.778 C 375.939 12.616,376.131 12.642,376.255 12.841 M396.234 12.885 C 396.612 13.160,395.868 14.167,395.288 14.167 C 394.574 14.167,393.811 13.005,394.375 12.777 C 394.797 12.607,395.945 12.673,396.234 12.885 M363.778 12.944 C 363.625 13.098,363.637 14.501,363.792 14.496 C 363.860 14.494,364.029 14.251,364.167 13.955 C 364.618 12.982,365.422 13.206,365.606 14.355 C 365.696 14.918,365.766 15.000,366.157 15.000 C 366.699 15.000,367.548 15.822,367.470 16.272 C 367.426 16.532,367.524 16.583,368.065 16.583 C 368.980 16.583,369.379 16.013,369.470 14.575 C 369.582 12.823,368.768 12.363,367.113 13.243 L 366.342 13.653 365.855 13.243 C 365.381 12.844,364.067 12.655,363.778 12.944 M360.611 13.737 C 360.453 14.150,360.000 14.056,360.000 13.611 C 360.000 13.397,360.052 13.170,360.115 13.107 C 360.302 12.920,360.721 13.451,360.611 13.737 M368.362 13.442 C 368.944 13.969,368.563 15.167,367.813 15.167 C 367.202 15.167,366.950 14.015,367.442 13.471 C 367.783 13.095,367.971 13.089,368.362 13.442 M371.284 13.439 C 371.068 13.654,371.163 14.790,371.415 14.998 C 371.718 15.250,371.816 15.058,371.876 14.090 C 371.915 13.451,371.608 13.114,371.284 13.439 M369.101 15.070 C 369.273 15.516,368.841 16.079,368.551 15.789 C 368.354 15.592,368.341 15.464,368.490 15.186 C 368.708 14.779,368.970 14.729,369.101 15.070 " stroke="none" fill="#8e8ea6" fill-rule="evenodd"></path><path id="path5" d="M350.000 11.655 C 349.771 11.724,349.021 11.796,348.333 11.814 C 346.940 11.850,346.570 12.089,346.756 12.832 C 346.901 13.411,347.099 13.495,348.334 13.497 C 348.931 13.499,349.672 13.573,349.981 13.661 C 350.813 13.900,351.118 13.663,351.204 12.712 C 351.308 11.562,351.051 11.336,350.000 11.655 M375.778 12.778 C 375.615 12.941,375.642 13.500,375.813 13.500 C 375.893 13.500,376.050 13.391,376.161 13.257 C 376.457 12.901,376.101 12.455,375.778 12.778 M394.375 12.777 C 393.811 13.005,394.574 14.167,395.288 14.167 C 395.868 14.167,396.612 13.160,396.234 12.885 C 395.945 12.673,394.797 12.607,394.375 12.777 M360.115 13.107 C 360.052 13.170,360.000 13.397,360.000 13.611 C 360.000 14.056,360.453 14.150,360.611 13.737 C 360.721 13.451,360.302 12.920,360.115 13.107 M368.490 15.186 C 368.341 15.464,368.354 15.592,368.551 15.789 C 368.841 16.079,369.273 15.516,369.101 15.070 C 368.970 14.729,368.708 14.779,368.490 15.186 " stroke="none" fill="#8c8c8c" fill-rule="evenodd"></path><path id="path6" d="M346.708 10.782 C 346.869 10.823,347.131 10.823,347.292 10.782 C 347.452 10.740,347.321 10.705,347.000 10.705 C 346.679 10.705,346.548 10.740,346.708 10.782 M360.792 11.284 C 360.998 11.324,361.335 11.324,361.542 11.284 C 361.748 11.245,361.579 11.212,361.167 11.212 C 360.754 11.212,360.585 11.245,360.792 11.284 M362.488 11.542 C 362.670 11.783,362.670 11.884,362.488 12.125 C 362.279 12.403,362.283 12.403,362.587 12.125 C 362.900 11.838,362.900 11.829,362.587 11.542 C 362.283 11.264,362.279 11.264,362.488 11.542 M369.807 12.000 C 369.604 12.275,369.320 12.506,369.177 12.513 C 368.987 12.523,368.976 12.550,369.138 12.615 C 369.260 12.663,369.608 12.432,369.911 12.102 C 370.214 11.771,370.398 11.500,370.319 11.500 C 370.241 11.500,370.010 11.725,369.807 12.000 M370.975 12.043 C 371.531 12.654,372.250 12.925,372.714 12.699 C 373.039 12.540,373.018 12.530,372.547 12.612 C 372.086 12.693,371.983 12.645,371.812 12.270 C 371.703 12.030,371.519 11.833,371.404 11.833 C 371.288 11.833,371.057 11.784,370.889 11.723 C 370.638 11.633,370.653 11.690,370.975 12.043 M394.621 12.287 C 394.917 12.324,395.442 12.324,395.788 12.288 C 396.134 12.252,395.892 12.222,395.250 12.221 C 394.608 12.221,394.325 12.250,394.621 12.287 M361.168 12.581 C 360.955 12.839,361.380 13.175,361.618 12.937 C 361.675 12.880,361.635 12.833,361.528 12.833 C 361.132 12.833,361.349 12.520,361.792 12.453 L 362.250 12.383 361.812 12.358 C 361.571 12.345,361.282 12.445,361.168 12.581 M364.542 12.448 C 364.702 12.490,364.965 12.490,365.125 12.448 C 365.285 12.406,365.154 12.372,364.833 12.372 C 364.512 12.372,364.381 12.406,364.542 12.448 M363.345 12.939 C 363.155 13.181,363.005 13.499,363.011 13.647 C 363.017 13.810,363.086 13.753,363.186 13.503 C 363.277 13.276,363.471 12.957,363.618 12.795 C 363.765 12.633,363.841 12.500,363.788 12.500 C 363.735 12.500,363.535 12.698,363.345 12.939 M362.125 13.172 C 362.512 13.327,362.650 13.833,362.306 13.833 C 362.199 13.833,362.159 13.882,362.218 13.940 C 362.277 13.999,362.441 13.951,362.584 13.833 C 362.892 13.577,362.489 12.992,362.016 13.011 C 361.843 13.017,361.881 13.074,362.125 13.172 M364.434 14.097 C 364.379 14.242,364.342 14.523,364.353 14.722 C 364.368 14.987,364.402 14.951,364.484 14.583 C 364.558 14.250,364.690 14.091,364.881 14.106 C 365.038 14.119,365.167 14.063,365.167 13.981 C 365.167 13.723,364.540 13.822,364.434 14.097 M376.980 14.370 C 377.057 14.833,377.080 14.856,377.133 14.522 C 377.167 14.306,377.126 14.060,377.042 13.976 C 376.950 13.883,376.925 14.039,376.980 14.370 M378.209 14.417 C 378.211 14.783,378.245 14.914,378.285 14.706 C 378.324 14.499,378.323 14.199,378.281 14.040 C 378.239 13.880,378.207 14.050,378.209 14.417 M361.208 14.110 C 361.094 14.157,361.000 14.272,361.000 14.368 C 361.000 14.485,361.067 14.487,361.208 14.372 C 361.323 14.279,361.567 14.166,361.750 14.121 L 362.083 14.039 361.750 14.032 C 361.567 14.029,361.323 14.064,361.208 14.110 M363.136 14.452 C 363.099 14.769,362.959 14.938,362.667 15.018 C 362.405 15.091,362.358 15.140,362.542 15.150 C 363.008 15.177,362.878 15.650,362.375 15.761 C 361.685 15.914,361.518 16.009,362.083 15.928 C 363.197 15.768,363.763 15.574,363.456 15.455 C 363.215 15.362,363.181 15.220,363.269 14.671 C 363.328 14.302,363.334 14.000,363.282 14.000 C 363.231 14.000,363.165 14.203,363.136 14.452 M366.384 15.798 C 366.540 15.969,366.667 16.223,366.667 16.362 C 366.667 16.629,367.173 17.167,367.425 17.167 C 367.507 17.167,367.417 17.057,367.226 16.923 C 367.034 16.788,366.834 16.460,366.780 16.194 C 366.727 15.927,366.553 15.659,366.393 15.597 C 366.119 15.492,366.119 15.504,366.384 15.798 " stroke="none" fill="#cccccc" fill-rule="evenodd"></path><path id="path7" d="M348.049 10.624 C 348.671 10.656,349.646 10.656,350.215 10.623 C 350.784 10.591,350.275 10.564,349.083 10.565 C 347.892 10.565,347.426 10.592,348.049 10.624 M362.113 11.283 C 363.104 11.476,362.783 12.500,361.732 12.500 C 361.187 12.500,361.228 12.802,361.792 12.936 C 362.769 13.168,363.005 13.695,362.275 14.013 C 361.992 14.136,362.030 14.148,362.458 14.071 C 362.952 13.982,363.000 14.011,363.000 14.392 C 363.000 14.709,362.898 14.829,362.581 14.884 C 362.198 14.951,362.201 14.956,362.623 14.937 C 363.063 14.918,363.083 14.880,363.083 14.059 C 363.083 13.445,363.178 13.090,363.415 12.809 L 363.748 12.417 363.321 12.792 C 362.827 13.226,362.697 13.242,362.269 12.918 C 361.967 12.689,361.972 12.672,362.385 12.484 C 363.182 12.121,362.964 11.133,362.099 11.189 C 361.760 11.211,361.760 11.214,362.113 11.283 M371.027 11.709 C 371.397 11.816,371.707 12.038,371.815 12.276 C 371.932 12.533,372.123 12.659,372.371 12.644 L 372.750 12.621 372.375 12.549 C 372.169 12.509,371.999 12.388,371.997 12.280 C 371.992 11.858,371.678 11.623,371.061 11.579 L 370.417 11.534 371.027 11.709 M375.774 11.615 C 375.971 11.654,376.264 11.831,376.425 12.009 C 376.586 12.188,376.787 12.333,376.872 12.333 C 376.956 12.333,376.803 12.146,376.530 11.917 C 376.258 11.688,375.896 11.510,375.726 11.523 C 375.476 11.541,375.486 11.559,375.774 11.615 M345.714 12.583 C 345.716 13.042,345.748 13.209,345.786 12.956 C 345.825 12.703,345.824 12.328,345.784 12.123 C 345.744 11.918,345.713 12.125,345.714 12.583 M359.392 13.583 C 359.392 14.408,359.420 14.767,359.455 14.380 C 359.490 13.993,359.490 13.318,359.456 12.880 C 359.422 12.442,359.393 12.758,359.392 13.583 M368.917 12.333 L 368.250 12.453 368.865 12.476 C 369.204 12.489,369.527 12.425,369.583 12.333 C 369.640 12.242,369.663 12.177,369.635 12.190 C 369.607 12.203,369.283 12.268,368.917 12.333 M393.442 12.471 C 393.291 12.639,393.169 12.845,393.172 12.930 C 393.175 13.014,393.256 12.947,393.353 12.781 C 393.449 12.615,393.691 12.413,393.889 12.333 C 394.133 12.235,394.164 12.184,393.984 12.177 C 393.838 12.171,393.594 12.304,393.442 12.471 M396.611 12.333 C 396.809 12.413,397.051 12.615,397.147 12.781 C 397.244 12.947,397.325 13.001,397.328 12.901 C 397.335 12.647,396.774 12.164,396.487 12.177 C 396.357 12.183,396.412 12.253,396.611 12.333 M394.000 14.083 C 394.311 14.404,394.603 14.667,394.649 14.667 C 394.695 14.667,394.478 14.404,394.167 14.083 C 393.856 13.762,393.564 13.500,393.518 13.500 C 393.472 13.500,393.689 13.762,394.000 14.083 M396.324 14.125 L 395.750 14.750 396.375 14.176 C 396.957 13.641,397.077 13.500,396.949 13.500 C 396.922 13.500,396.640 13.781,396.324 14.125 M367.667 14.139 C 367.667 14.307,367.716 14.494,367.776 14.554 C 367.953 14.731,368.322 14.331,368.222 14.071 C 368.090 13.727,367.667 13.779,367.667 14.139 M376.508 14.151 C 376.412 14.331,376.339 14.614,376.346 14.781 C 376.360 15.087,376.369 15.071,376.606 14.338 C 376.675 14.122,376.703 14.122,376.840 14.338 C 376.971 14.546,376.995 14.540,376.997 14.302 C 377.001 13.873,376.706 13.782,376.508 14.151 M364.563 14.243 C 364.506 14.392,364.506 14.561,364.563 14.618 C 364.620 14.675,364.667 14.597,364.667 14.444 C 364.667 14.031,364.967 14.108,365.047 14.542 C 365.110 14.886,365.114 14.883,365.099 14.513 C 365.080 14.038,364.713 13.853,364.563 14.243 M361.168 14.415 C 360.937 14.694,361.300 14.941,361.703 14.779 C 361.837 14.725,361.808 14.688,361.625 14.680 C 361.465 14.673,361.333 14.597,361.333 14.512 C 361.333 14.427,361.465 14.323,361.625 14.282 C 361.871 14.217,361.874 14.202,361.645 14.186 C 361.496 14.175,361.282 14.278,361.168 14.415 M346.039 15.167 C 346.039 15.487,346.073 15.619,346.115 15.458 C 346.157 15.298,346.157 15.035,346.115 14.875 C 346.073 14.715,346.039 14.846,346.039 15.167 M377.011 15.016 C 376.999 15.295,377.501 15.837,377.763 15.828 C 377.848 15.825,377.781 15.744,377.614 15.647 C 377.448 15.551,377.247 15.309,377.167 15.111 C 377.068 14.867,377.018 14.836,377.011 15.016 M365.172 15.258 C 365.163 15.553,365.546 15.833,365.955 15.833 C 366.203 15.833,366.399 15.970,366.495 16.208 C 366.587 16.438,366.650 16.483,366.656 16.325 C 366.671 15.959,366.331 15.667,365.892 15.667 C 365.685 15.667,365.440 15.535,365.347 15.375 C 365.253 15.215,365.175 15.162,365.172 15.258 M376.113 15.399 C 376.060 15.538,375.741 15.674,375.384 15.711 L 374.750 15.777 375.355 15.805 C 375.910 15.831,376.519 15.464,376.294 15.239 C 376.247 15.191,376.165 15.263,376.113 15.399 M363.127 15.785 C 363.334 15.824,363.634 15.823,363.794 15.781 C 363.953 15.739,363.783 15.707,363.417 15.709 C 363.050 15.711,362.920 15.745,363.127 15.785 M370.788 15.787 C 371.084 15.824,371.609 15.824,371.955 15.788 C 372.300 15.752,372.058 15.722,371.417 15.721 C 370.775 15.721,370.492 15.750,370.788 15.787 M360.877 16.120 C 361.131 16.158,361.506 16.157,361.711 16.117 C 361.916 16.078,361.708 16.046,361.250 16.048 C 360.792 16.049,360.624 16.081,360.877 16.120 M373.375 16.115 C 373.535 16.157,373.798 16.157,373.958 16.115 C 374.119 16.073,373.988 16.039,373.667 16.039 C 373.346 16.039,373.215 16.073,373.375 16.115 M348.958 16.458 C 349.990 16.487,351.677 16.487,352.708 16.458 C 353.740 16.429,352.896 16.405,350.833 16.405 C 348.771 16.405,347.927 16.429,348.958 16.458 M367.627 17.285 C 367.834 17.324,368.134 17.323,368.294 17.281 C 368.453 17.239,368.283 17.207,367.917 17.209 C 367.550 17.211,367.420 17.245,367.627 17.285 " stroke="none" fill="#d4d4d6" fill-rule="evenodd"></path><path id="path8" d="M345.909 10.742 C 345.450 11.202,345.383 12.298,345.656 14.905 C 345.851 16.765,345.561 16.667,350.865 16.667 C 356.473 16.667,356.000 16.958,356.000 13.500 C 356.000 10.040,356.479 10.333,350.826 10.333 L 346.318 10.333 345.909 10.742 M355.458 10.963 C 355.770 11.364,355.747 15.660,355.430 16.093 C 355.148 16.479,346.705 16.605,346.330 16.230 C 345.986 15.886,345.598 12.343,345.817 11.545 C 346.094 10.538,346.347 10.494,351.167 10.603 C 354.647 10.681,355.281 10.734,355.458 10.963 M360.212 10.951 C 359.080 11.169,358.616 14.964,359.600 15.949 C 360.131 16.479,363.469 16.444,364.300 15.899 C 364.830 15.552,365.570 15.876,366.516 16.870 C 367.391 17.789,368.371 17.779,369.389 16.841 L 370.103 16.183 372.927 16.212 C 375.410 16.238,375.812 16.205,376.266 15.934 C 376.758 15.639,376.802 15.639,377.224 15.915 C 378.136 16.512,378.854 15.408,378.598 13.805 C 378.440 12.814,378.222 12.506,377.434 12.157 C 377.046 11.986,376.591 11.693,376.422 11.506 C 375.989 11.028,375.420 11.077,375.027 11.628 C 374.535 12.320,372.714 12.318,372.170 11.625 C 371.605 10.907,370.016 10.943,369.488 11.684 C 369.155 12.152,369.057 12.192,368.482 12.100 C 368.069 12.034,367.609 12.092,367.173 12.267 C 366.550 12.516,366.448 12.515,365.802 12.257 C 365.309 12.060,364.875 12.009,364.325 12.084 C 363.572 12.188,363.537 12.173,363.211 11.621 C 362.785 10.899,361.716 10.660,360.212 10.951 M362.728 11.476 C 363.075 11.859,362.949 12.227,362.385 12.484 C 361.972 12.672,361.967 12.689,362.269 12.918 C 362.699 13.243,362.795 13.229,363.364 12.750 C 363.960 12.248,365.264 12.175,365.987 12.602 C 366.407 12.850,366.484 12.850,366.963 12.602 C 367.271 12.443,367.888 12.333,368.473 12.333 C 369.344 12.333,369.494 12.284,369.735 11.915 C 370.196 11.213,372.000 11.467,372.000 12.235 C 372.000 12.705,374.839 12.445,375.207 11.941 C 375.572 11.439,376.021 11.373,376.352 11.773 C 376.477 11.923,376.899 12.183,377.292 12.351 C 378.305 12.786,378.803 14.840,378.071 15.571 C 377.655 15.988,377.002 15.599,376.997 14.933 C 376.991 14.025,376.621 14.034,376.426 14.947 C 376.203 15.983,375.293 16.163,371.565 15.906 L 370.047 15.802 369.292 16.568 C 368.196 17.679,367.072 17.611,366.567 16.403 C 366.391 15.982,366.226 15.833,365.935 15.833 C 365.434 15.833,365.176 15.520,365.053 14.765 C 364.923 13.962,364.745 14.011,364.518 14.914 C 364.376 15.479,364.239 15.678,363.957 15.731 C 359.717 16.529,359.417 16.390,359.417 13.627 C 359.417 11.913,359.440 11.786,359.810 11.486 C 360.367 11.034,362.323 11.028,362.728 11.476 M393.917 11.946 C 392.732 12.144,392.671 12.932,393.749 14.130 C 394.921 15.434,395.626 15.407,396.888 14.010 C 398.286 12.462,396.841 11.458,393.917 11.946 M397.070 12.485 C 397.583 13.052,396.203 14.833,395.250 14.833 C 394.772 14.833,393.756 13.989,393.396 13.293 C 392.950 12.432,393.387 12.167,395.250 12.167 C 396.546 12.167,396.826 12.216,397.070 12.485 M361.958 14.200 C 361.249 14.389,361.158 14.581,361.708 14.728 C 362.573 14.960,363.000 14.857,363.000 14.417 C 363.000 13.966,362.910 13.948,361.958 14.200 " stroke="none" fill="#dcdcdc" fill-rule="evenodd"></path></g></svg>